<svg xmlns="http://www.w3.org/2000/svg" width="200" height="200" viewBox="0 0 200 200">
<g>
<path d="M 120.74 156.44 C114.30,159.65 107.31,159.80 101.00,156.86 C95.73,154.41 97.07,153.17 102.53,155.45 C106.92,157.28 113.36,157.45 118.10,155.85 C124.18,153.81 124.41,153.01 119.75,150.03 C117.41,148.53 114.64,146.33 113.60,145.15 C111.00,142.22 109.95,142.42 105.95,146.59 C100.81,151.92 95.26,154.79 87.47,156.12 C77.53,157.81 71.38,155.90 63.84,148.79 C57.89,143.16 57.00,141.85 54.53,134.91 C52.63,129.59 51.45,112.56 52.43,104.70 C53.61,95.28 54.94,98.28 54.37,109.07 C53.69,121.95 55.30,131.77 59.35,139.44 L 62.48 145.39 L 63.06 141.94 C64.27,134.78 70.39,127.41 77.65,124.37 C83.95,121.74 85.39,123.56 79.17,126.31 C73.24,128.92 67.41,134.88 65.93,139.83 C64.78,143.67 64.84,144.55 66.45,147.53 C69.03,152.33 74.02,154.50 82.50,154.50 C90.77,154.50 97.79,151.55 104.96,145.04 C107.41,142.82 110.14,141.00 111.02,141.00 C111.90,141.00 113.95,142.38 115.56,144.07 C122.50,151.32 136.57,156.25 143.76,153.95 C149.88,152.00 153.00,148.38 153.00,143.26 C153.00,140.86 152.31,137.58 151.48,135.96 C149.90,132.90 140.69,125.02 138.66,124.98 C138.02,124.97 136.38,124.08 135.00,123.00 L 132.50 121.04 L 135.80 121.97 C137.61,122.47 141.22,124.20 143.82,125.80 L 148.55 128.70 L 150.40 123.13 C151.68,119.28 152.22,114.93 152.14,109.05 C152.04,101.55 151.64,99.79 148.76,94.14 C144.60,85.97 137.17,79.25 128.25,75.58 C119.81,72.10 119.41,72.01 108.67,71.01 C102.66,70.45 96.89,70.60 90.67,71.47 C85.62,72.17 81.47,72.69 81.44,72.62 C81.41,72.55 79.87,70.54 78.02,68.14 C75.54,64.92 72.72,62.88 67.32,60.39 C63.29,58.52 59.71,57.00 59.37,57.00 C59.03,57.00 61.93,60.35 65.82,64.45 C69.71,68.54 73.64,73.34 74.56,75.11 L 76.22 78.33 L 72.10 81.76 C69.83,83.64 66.86,87.08 65.50,89.40 C62.61,94.34 57.14,99.87 58.47,96.50 C58.91,95.40 59.24,93.72 59.20,92.77 C59.16,91.82 59.56,90.77 60.08,90.45 C60.60,90.13 60.73,89.37 60.36,88.78 C59.99,88.17 60.15,87.98 60.74,88.34 C61.93,89.08 65.00,84.86 65.00,82.48 C65.00,81.51 65.46,81.17 66.17,81.61 C66.92,82.07 67.14,81.81 66.80,80.91 C66.50,80.13 66.95,78.83 67.82,78.03 C69.20,76.73 69.30,76.77 68.70,78.35 C68.13,79.83 68.39,80.01 70.26,79.44 C71.49,79.06 72.69,78.58 72.92,78.37 C75.19,76.32 56.04,56.69 46.77,51.57 C43.07,49.53 39.53,48.17 38.91,48.56 C37.65,49.33 38.42,59.33 40.06,63.66 C40.58,65.02 41.50,69.37 42.11,73.32 C43.45,82.00 44.52,84.19 50.99,91.59 C53.75,94.74 55.80,97.54 55.53,97.80 C54.62,98.71 48.05,92.93 45.20,88.72 C41.78,83.67 39.00,76.87 39.00,73.56 C39.00,72.24 37.63,67.18 35.97,62.33 C32.77,53.04 32.68,48.77 35.60,44.25 C36.70,42.53 37.99,42.00 41.06,42.00 C45.70,42.00 48.54,43.58 55.56,50.08 C58.87,53.13 62.83,55.56 67.01,57.08 C74.19,59.70 82.00,66.32 82.00,69.79 L 82.00 71.93 L 86.58 69.96 C93.59,66.96 112.01,67.16 121.74,70.35 C128.77,72.65 131.00,72.45 131.00,69.50 C131.00,67.37 137.57,62.09 144.50,58.64 C148.35,56.73 153.51,53.11 155.96,50.58 C159.55,46.89 161.08,46.00 163.86,46.00 L 167.30 46.00 L 166.67 55.75 C165.71,70.31 161.08,86.79 155.87,94.17 C154.22,96.50 154.10,97.64 154.92,103.41 C156.04,111.31 154.91,120.59 152.15,126.16 L 150.17 130.16 L 152.59 133.72 C155.30,137.71 155.86,145.02 153.80,149.53 C151.18,155.29 140.37,157.79 130.10,155.03 C126.28,154.00 125.37,154.14 120.74,156.44 ZM 153.57 91.11 C154.21,92.14 155.52,89.45 158.98,80.00 C162.01,71.74 165.68,50.00 164.05,50.00 C162.57,50.00 155.15,58.44 150.42,65.50 C147.83,69.35 144.59,74.03 143.20,75.90 C140.77,79.16 140.75,79.34 142.53,80.65 C143.55,81.39 144.91,82.00 145.56,82.00 C146.21,82.00 148.08,83.57 149.72,85.48 C151.36,87.40 153.06,88.64 153.51,88.23 C153.96,87.83 154.00,88.06 153.60,88.75 C153.21,89.44 153.19,90.50 153.57,91.11 ZM 114.59 135.00 C113.93,135.00 112.90,136.24 112.30,137.75 L 111.21 140.50 L 111.11 137.46 C111.02,134.93 110.45,134.25 107.79,133.46 C105.82,132.87 103.85,131.25 102.71,129.28 L 100.85 126.06 L 104.18 124.03 C106.00,122.92 109.07,122.03 111.00,122.05 C114.82,122.10 121.13,124.81 121.73,126.66 C122.19,128.07 116.26,135.00 114.59,135.00 ZM 134.20 75.44 C136.56,76.70 138.82,77.79 139.20,77.87 C139.59,77.94 141.54,75.19 143.55,71.75 C145.55,68.31 148.32,64.01 149.70,62.18 C151.07,60.36 152.04,58.73 151.85,58.56 C150.79,57.61 137.99,65.06 134.26,68.79 L 129.90 73.16 ZM 89.17 116.35 C88.17,117.26 85.92,118.00 84.17,118.00 C75.65,118.00 74.19,106.07 82.52,104.44 C89.07,103.15 94.00,111.97 89.17,116.35 ZM 138.98 114.54 C138.31,115.79 136.78,117.00 135.57,117.23 C128.49,118.59 124.97,109.56 131.21,106.05 C133.70,104.66 134.12,104.70 136.70,106.63 C139.99,109.08 140.66,111.40 138.98,114.54 ZM 51.50 51.90 C56.78,55.92 57.35,55.79 52.89,51.56 C46.14,45.16 39.22,42.21 37.50,45.00 C37.16,45.55 37.75,46.00 38.82,46.00 C41.70,46.00 46.99,48.46 51.50,51.90 ZM 81.10 109.62 C82.78,111.65 85.00,111.30 85.00,109.00 C85.00,106.90 84.23,106.59 81.56,107.62 C80.31,108.09 80.21,108.55 81.10,109.62 ZM 132.25 111.28 C133.94,111.89 135.00,111.18 135.00,109.44 C135.00,108.65 134.10,108.00 133.00,108.00 C130.82,108.00 130.23,110.56 132.25,111.28 ZM 105.50 127.00 C105.16,127.55 105.78,128.00 106.88,128.00 C107.98,128.00 109.16,127.55 109.50,127.00 C109.84,126.45 109.22,126.00 108.12,126.00 C107.02,126.00 105.84,126.45 105.50,127.00 ZM 129.00 113.00 C129.00,113.55 129.45,114.00 130.00,114.00 C130.55,114.00 131.00,113.55 131.00,113.00 C131.00,112.45 130.55,112.00 130.00,112.00 C129.45,112.00 129.00,112.45 129.00,113.00 Z" fill="rgb(44,35,35)" data-index="0" style="opacity: 1;"></path>
<path d="M 50.74 91.16 C54.98,95.68 56.89,96.78 58.22,95.45 C59.30,94.36 56.83,86.45 54.69,84.17 C52.63,81.98 52.60,81.76 54.25,80.56 C55.25,79.83 56.00,77.98 56.00,76.26 C56.00,71.57 58.10,70.50 62.67,72.85 C64.78,73.94 67.49,75.77 68.71,76.91 C68.78,76.98 68.85,77.05 68.93,77.12 C68.76,77.17 68.40,77.48 67.82,78.03 C66.95,78.83 66.50,80.13 66.80,80.91 C67.14,81.81 66.92,82.07 66.17,81.61 C65.46,81.17 65.00,81.51 65.00,82.48 C65.00,84.86 61.93,89.08 60.74,88.34 C60.15,87.98 59.99,88.17 60.36,88.78 C60.73,89.37 60.60,90.13 60.08,90.45 C59.56,90.77 59.16,91.82 59.20,92.77 C59.24,93.72 58.91,95.40 58.47,96.50 C57.14,99.87 62.61,94.34 65.50,89.40 C66.86,87.08 69.83,83.64 72.10,81.76 L 76.22 78.33 L 74.56 75.11 C73.64,73.34 69.71,68.54 65.82,64.45 C61.93,60.35 59.03,57.00 59.37,57.00 C59.71,57.00 63.29,58.52 67.32,60.39 C72.72,62.88 75.54,64.92 78.02,68.14 C79.87,70.54 81.41,72.55 81.44,72.62 C81.47,72.69 85.62,72.17 90.67,71.47 C96.89,70.60 102.66,70.45 108.67,71.01 C109.25,71.07 109.80,71.12 110.33,71.17 C110.28,71.16 110.22,71.16 110.17,71.16 L 102.42 70.81 L 103.19 80.15 C104.14,91.61 102.66,107.71 100.14,113.42 C98.57,116.96 97.40,118.00 92.89,119.89 C84.45,123.43 77.02,127.32 72.83,130.37 C74.78,128.71 76.97,127.28 79.17,126.31 C85.39,123.56 83.95,121.74 77.65,124.37 C70.39,127.41 64.27,134.78 63.06,141.94 L 62.48 145.39 L 59.35 139.44 C55.30,131.77 53.69,121.95 54.37,109.07 C54.81,100.78 54.12,97.08 53.25,100.09 C53.54,98.17 53.10,97.30 50.92,95.02 C53.10,96.97 55.07,98.27 55.53,97.80 C55.80,97.54 53.75,94.74 50.99,91.59 C50.06,90.52 49.24,89.56 48.51,88.68 C49.17,89.45 49.91,90.27 50.74,91.16 ZM 117.65 72.03 C120.96,72.60 123.12,73.47 128.25,75.58 C137.17,79.25 144.60,85.97 148.76,94.14 C151.64,99.79 152.04,101.55 152.14,109.05 C152.22,114.93 151.68,119.28 150.40,123.13 L 148.55 128.70 L 143.82 125.80 C141.22,124.20 137.61,122.47 135.80,121.97 L 132.50 121.04 L 135.00 123.00 C135.24,123.19 135.48,123.37 135.73,123.54 C134.23,122.75 132.61,121.95 130.86,121.11 C122.89,117.30 120.08,115.45 119.66,113.76 C118.38,108.65 117.90,89.94 118.85,82.00 C119.50,76.49 119.51,73.15 118.88,72.51 C118.73,72.35 118.29,72.18 117.65,72.03 ZM 134.20 75.44 L 129.90 73.16 L 134.26 68.79 C137.99,65.06 150.79,57.61 151.85,58.56 C152.04,58.73 151.07,60.36 149.70,62.18 C148.32,64.01 145.55,68.31 143.55,71.75 C141.54,75.19 139.59,77.94 139.20,77.87 C138.82,77.79 136.56,76.70 134.20,75.44 ZM 89.17 116.35 C94.00,111.97 89.07,103.15 82.52,104.44 C74.19,106.07 75.65,118.00 84.17,118.00 C85.92,118.00 88.17,117.26 89.17,116.35 ZM 138.98 114.54 C140.66,111.40 139.99,109.08 136.70,106.63 C134.12,104.70 133.70,104.66 131.21,106.05 C124.97,109.56 128.49,118.59 135.57,117.23 C136.78,117.00 138.31,115.79 138.98,114.54 ZM 153.57 91.11 C153.19,90.50 153.21,89.44 153.60,88.75 C154.00,88.06 153.96,87.83 153.51,88.23 C153.06,88.64 151.36,87.40 149.72,85.48 C148.08,83.57 146.21,82.00 145.56,82.00 C144.91,82.00 143.55,81.39 142.53,80.65 C140.75,79.34 140.77,79.16 143.20,75.90 C144.59,74.03 147.83,69.35 150.42,65.50 C151.73,63.53 153.26,61.46 154.81,59.50 C149.39,66.74 141.78,78.11 142.29,78.62 C142.54,78.88 144.15,77.91 145.86,76.47 C149.58,73.33 153.00,73.83 153.00,77.51 C153.00,78.81 153.46,80.17 154.03,80.52 C154.59,80.87 154.84,82.92 154.58,85.08 C154.18,88.47 154.78,89.70 155.71,88.41 C154.56,91.03 153.95,91.72 153.57,91.11 ZM 51.50 51.90 C46.99,48.46 41.70,46.00 38.82,46.00 C37.75,46.00 37.16,45.55 37.50,45.00 C39.22,42.21 46.14,45.16 52.89,51.56 C57.35,55.79 56.78,55.92 51.50,51.90 ZM 163.86 58.05 C163.93,57.41 163.97,56.89 163.97,56.50 C163.97,51.88 163.00,50.80 160.41,52.97 C162.15,51.15 163.50,50.00 164.05,50.00 C164.70,50.00 164.51,53.41 163.86,58.05 ZM 69.05 77.23 C70.14,78.20 71.09,78.77 71.78,78.91 C71.34,79.09 70.80,79.27 70.26,79.44 C68.39,80.01 68.13,79.83 68.70,78.35 C68.92,77.77 69.04,77.40 69.05,77.23 ZM 128.60 71.91 C128.87,71.86 129.00,71.75 129.00,71.57 C129.00,70.66 130.36,68.97 132.43,67.05 C131.52,68.04 131.00,68.89 131.00,69.50 C131.00,71.10 130.34,71.90 128.60,71.91 ZM 129.00 113.00 C129.00,112.45 129.45,112.00 130.00,112.00 C130.55,112.00 131.00,112.45 131.00,113.00 C131.00,113.55 130.55,114.00 130.00,114.00 C129.45,114.00 129.00,113.55 129.00,113.00 ZM 77.17 63.10 C80.00,65.43 82.00,67.83 82.00,69.33 C82.00,71.39 83.06,71.42 87.65,69.50 C88.96,68.95 90.86,68.57 93.53,68.33 C90.72,68.68 88.31,69.23 86.58,69.96 L 82.00 71.93 L 82.00 69.79 C82.00,68.05 80.04,65.52 77.17,63.10 ZM 87.59 154.10 C93.67,152.73 99.97,149.57 104.96,145.04 C99.30,150.17 93.74,153.09 87.59,154.10 ZM 138.29 124.91 C138.43,124.95 138.56,124.98 138.66,124.98 C139.67,125.00 142.44,126.94 145.17,129.27 C143.28,127.86 141.01,126.42 138.29,124.91 ZM 72.93 78.36 C72.98,78.22 73.00,78.04 73.00,77.84 C73.00,76.76 70.43,73.16 67.05,69.17 C71.15,73.70 73.83,77.50 72.93,78.36 ZM 109.03 68.10 C114.27,68.30 117.29,68.90 121.67,70.33 C118.24,69.21 113.73,68.46 109.03,68.10 ZM 33.50 50.70 C33.52,47.62 34.34,45.27 35.92,43.79 C35.81,43.93 35.70,44.09 35.60,44.25 C34.28,46.29 33.58,48.28 33.50,50.70 ZM 67.03 148.51 C68.29,150.12 70.09,151.64 72.11,152.75 C69.93,151.77 68.26,150.37 67.03,148.51 ZM 51.19 54.51 C48.80,52.87 46.41,51.40 44.36,50.32 C45.13,50.69 45.95,51.11 46.77,51.57 C48.08,52.29 49.58,53.30 51.19,54.51 ZM 150.14 134.10 C150.75,134.82 151.22,135.45 151.48,135.96 C151.83,136.64 152.16,137.62 152.42,138.71 C151.96,137.09 151.22,135.58 150.14,134.10 ZM 39.00 73.50 C38.67,71.52 37.82,68.20 36.85,64.99 C38.07,68.84 38.97,72.35 39.00,73.50 ZM 159.05 79.81 C160.09,76.87 161.56,70.80 162.62,65.49 C161.59,70.87 160.27,76.40 159.05,79.81 ZM 67.54 136.39 C65.92,139.26 64.98,142.41 65.25,144.68 C64.98,143.40 65.23,142.16 65.93,139.83 C66.26,138.72 66.81,137.56 67.54,136.39 ZM 44.57 82.82 C43.37,80.29 42.77,77.59 42.11,73.32 C42.76,77.49 43.41,80.31 44.57,82.82 ZM 54.53 134.91 C55.61,137.94 56.39,139.90 57.42,141.62 C56.39,139.91 55.60,137.95 54.50,134.91 C54.25,134.22 54.02,133.28 53.80,132.15 C54.03,133.25 54.27,134.19 54.53,134.91 ZM 52.44 104.64 C52.52,103.78 52.63,103.03 52.76,102.42 C52.65,103.06 52.54,103.80 52.44,104.64 ZM 143.73 59.04 C143.99,58.90 144.24,58.77 144.50,58.64 C147.59,57.11 151.52,54.47 154.22,52.18 C151.52,54.47 147.59,57.11 144.50,58.64 C144.24,58.77 143.98,58.90 143.73,59.04 ZM 34.92 59.09 C34.71,58.40 34.52,57.72 34.36,57.06 C34.52,57.71 34.71,58.38 34.92,59.09 Z" fill="rgb(103,102,101)" data-index="1" style="opacity: 1;"></path>
<path d="M 50.74 91.16 C49.91,90.27 49.17,89.45 48.51,88.68 C46.68,86.45 45.46,84.68 44.57,82.82 C43.41,80.31 42.76,77.49 42.11,73.32 C41.50,69.37 40.58,65.02 40.06,63.66 C38.42,59.33 37.65,49.33 38.91,48.56 C39.39,48.26 41.64,49.01 44.36,50.32 C46.41,51.40 48.80,52.87 51.19,54.51 C56.32,58.35 62.55,64.21 67.05,69.17 C70.43,73.16 73.00,76.76 73.00,77.84 C73.00,78.04 72.98,78.22 72.93,78.36 C72.93,78.37 72.92,78.37 72.92,78.37 C72.79,78.49 72.36,78.69 71.78,78.91 C71.09,78.77 70.14,78.20 69.05,77.23 C69.05,77.12 69.01,77.09 68.93,77.12 C68.85,77.05 68.78,76.98 68.71,76.91 C67.49,75.77 64.78,73.94 62.67,72.85 C58.10,70.50 56.00,71.57 56.00,76.26 C56.00,77.98 55.25,79.83 54.25,80.56 C52.60,81.76 52.63,81.98 54.69,84.17 C56.83,86.45 59.30,94.36 58.22,95.45 C56.89,96.78 54.98,95.68 50.74,91.16 ZM 163.86 58.05 C163.54,60.32 163.11,62.89 162.62,65.49 C161.56,70.80 160.09,76.87 159.05,79.80 L 159.05 79.81 C159.03,79.87 159.00,79.94 158.98,80.00 C157.57,83.86 156.51,86.60 155.71,88.41 C154.78,89.70 154.18,88.47 154.58,85.08 C154.84,82.92 154.59,80.87 154.03,80.52 C153.46,80.17 153.00,78.81 153.00,77.51 C153.00,73.83 149.58,73.33 145.86,76.47 C144.15,77.91 142.54,78.88 142.29,78.62 C141.78,78.11 149.39,66.74 154.81,59.50 C156.77,57.01 158.76,54.69 160.41,52.97 C163.00,50.80 163.97,51.88 163.97,56.50 C163.97,56.89 163.93,57.41 163.86,58.05 Z" fill="rgb(152,95,95)" data-index="2"></path>

</g>
</svg>