<?xml version="1.0" encoding="UTF-8"?>
<svg version="1.1" xmlns="http://www.w3.org/2000/svg" width="200" height="200">
<path d="M0 0 C1.01468353 -0.0071553 2.02936707 -0.01431061 3.07479858 -0.02168274 C4.18235504 -0.02437164 5.2899115 -0.02706055 6.43103027 -0.02983093 C8.18789658 -0.03968773 8.18789658 -0.03968773 9.98025513 -0.04974365 C13.8616267 -0.06947422 17.7429847 -0.0811465 21.62438965 -0.09111023 C22.9651237 -0.09516042 24.30585755 -0.09927742 25.64659119 -0.10346031 C31.9513144 -0.12250749 38.25602598 -0.13673567 44.56077242 -0.14507228 C51.81329558 -0.15482267 59.06551175 -0.18108614 66.31792688 -0.22157317 C71.93853322 -0.2518615 77.55905224 -0.26655339 83.17973852 -0.26985329 C86.52928083 -0.27219072 89.87823607 -0.28298936 93.22773743 -0.30631447 C96.97543407 -0.33078413 100.72233993 -0.32972564 104.47009277 -0.32279968 C105.56145538 -0.33560974 106.65281799 -0.3484198 107.7772522 -0.36161804 C121.66723957 -0.26863153 132.9257254 4.98244005 143.08532715 14.20576477 C150.71372379 22.07155965 156.06172079 33.13876746 156.11531067 44.17903137 C156.12604362 45.70105667 156.12604362 45.70105667 156.13699341 47.25382996 C156.13968231 48.36138641 156.14237122 49.46894287 156.1451416 50.61006165 C156.1517128 51.78130585 156.158284 52.95255005 156.16505432 54.1592865 C156.18478489 58.04065807 156.19645717 61.92201607 156.2064209 65.80342102 C156.21047109 67.14415507 156.21458809 68.48488892 156.21877098 69.82562256 C156.23781816 76.13034577 156.25204634 82.43505736 156.26038295 88.73980379 C156.27013334 95.99232695 156.29639681 103.24454312 156.33688384 110.49695826 C156.36717216 116.11756459 156.38186406 121.73808361 156.38516396 127.35876989 C156.38750139 130.7083122 156.39830003 134.05726744 156.42162514 137.4067688 C156.4460948 141.15446544 156.44503631 144.9013713 156.43811035 148.64912415 C156.45732544 150.28616806 156.45732544 150.28616806 156.47692871 151.95628357 C156.38394219 165.84627094 151.13287062 177.10475678 141.9095459 187.26435852 C134.04375102 194.89275516 122.97654321 200.24075217 111.9362793 200.29434204 C110.414254 200.305075 110.414254 200.305075 108.86148071 200.31602478 C107.75392426 200.31871368 106.6463678 200.32140259 105.50524902 200.32417297 C103.74838272 200.33402977 103.74838272 200.33402977 101.95602417 200.34408569 C98.0746526 200.36381627 94.1932946 200.37548854 90.31188965 200.38545227 C88.9711556 200.38950246 87.63042175 200.39361946 86.28968811 200.39780235 C79.9849649 200.41684953 73.68025331 200.43107771 67.37550688 200.43941432 C60.12298371 200.44916471 52.87076755 200.47542818 45.61835241 200.51591522 C39.99774608 200.54620354 34.37722706 200.56089543 28.75654078 200.56419533 C25.40699847 200.56653276 22.05804323 200.5773314 18.70854187 200.60065651 C14.96084523 200.62512617 11.21393937 200.62406768 7.46618652 200.61714172 C5.82914261 200.63635681 5.82914261 200.63635681 4.1590271 200.65596008 C-9.73096028 200.56297357 -20.98944611 195.31190199 -31.14904785 186.08857727 C-38.7774445 178.22278239 -44.1254415 167.15557458 -44.17903137 156.11531067 C-44.18976433 154.59328537 -44.18976433 154.59328537 -44.20071411 153.04051208 C-44.20340302 151.93295563 -44.20609192 150.82539917 -44.2088623 149.6842804 C-44.2154335 148.51303619 -44.2220047 147.34179199 -44.22877502 146.13505554 C-44.2485056 142.25368397 -44.26017787 138.37232597 -44.2701416 134.49092102 C-44.27419179 133.15018697 -44.27830879 131.80945312 -44.28249168 130.46871948 C-44.30153886 124.16399627 -44.31576704 117.85928469 -44.32410365 111.55453825 C-44.33385405 104.30201509 -44.36011751 97.04979892 -44.40060455 89.79738379 C-44.43089287 84.17677745 -44.44558476 78.55625843 -44.44888467 72.93557215 C-44.45122209 69.58602984 -44.46202073 66.2370746 -44.48534584 62.88757324 C-44.5098155 59.1398766 -44.50875701 55.39297074 -44.50183105 51.6452179 C-44.51464111 50.55385529 -44.52745117 49.46249268 -44.54064941 48.33805847 C-44.4476629 34.4480711 -39.19659132 23.18958526 -29.9732666 13.02998352 C-22.10747172 5.40158688 -11.04026392 0.05358987 0 0 Z " fill="#2D3443" transform="translate(44.0318603515625,-0.1471710205078125)"/>
<path d="M0 0 C1.13526123 -0.00845947 1.13526123 -0.00845947 2.29345703 -0.01708984 C7.11329417 0.04539541 11.10103908 0.95101859 15.75 2.3125 C18.47612892 2.38563665 18.47612892 2.38563665 21 2 C22.24523437 1.85111328 22.24523437 1.85111328 23.515625 1.69921875 C25.91078721 1.34212948 25.91078721 1.34212948 28.75 0.3125 C44.79439546 -0.52375334 61.05990179 1.65562781 73.703125 12.453125 C74.71632812 13.37351562 74.71632812 13.37351562 75.75 14.3125 C76.76320312 15.17101562 76.76320312 15.17101562 77.796875 16.046875 C87.65346044 24.98656877 93.78430799 37.61168483 95.09375 50.765625 C95.74772224 66.39556158 90.63704193 80.19061817 80.4296875 91.99609375 C69.21327292 103.82782888 55.71365405 109.83970791 39.4296875 110.43359375 C29.06134051 110.62070829 29.06134051 110.62070829 24.375 109.25 C19.18820434 107.90858733 15.21371907 108.85228281 9.96875 109.83203125 C-5.70048532 112.17100691 -20.57969649 109.45121086 -33.72265625 100.3203125 C-45.87299444 90.66764815 -55.20440045 78.02116069 -57.25 62.3125 C-58.30966124 46.01803703 -54.81715065 32.59050609 -43.875 20.125 C-42.35006833 18.5049166 -40.80960681 16.89923041 -39.25 15.3125 C-38.68410156 14.73371094 -38.11820313 14.15492187 -37.53515625 13.55859375 C-27.28650595 3.96144689 -13.69553459 0.09724969 0 0 Z " fill="#FCFCFC" transform="translate(81.25,44.6875)"/>
<path d="M0 0 C2.43334502 1.01810523 2.43334502 1.01810523 5.609375 0.140625 C6.49625 -0.313125 7.383125 -0.766875 8.296875 -1.234375 C17.01721436 -4.59968906 27.47243211 -4.38712255 36.296875 -1.234375 C47.45901051 3.87151002 54.92542642 11.20303871 59.4765625 22.76171875 C62.00736543 32.02927803 60.30856191 41.18441305 56.296875 49.765625 C52.25333342 56.58517311 47.12355208 60.87179822 40.296875 64.765625 C39.224375 65.384375 38.151875 66.003125 37.046875 66.640625 C34.22007007 67.7970452 32.31702779 68.03210907 29.296875 67.765625 C30.40608762 64.53882466 31.84184788 61.88841377 33.734375 59.078125 C40.47527195 48.57902886 40.296875 36.97558004 40.296875 24.765625 C15.546875 24.435625 -9.203125 24.105625 -34.703125 23.765625 C-34.703125 29.705625 -34.703125 35.645625 -34.703125 41.765625 C-16.223125 41.765625 2.256875 41.765625 21.296875 41.765625 C19.60153399 46.85164802 18.36524355 49.58923448 15.296875 53.765625 C14.93335937 54.3225 14.56984375 54.879375 14.1953125 55.453125 C9.35818183 62.10047021 -0.54306954 67.43207508 -8.703125 68.765625 C-21.8372497 69.87065953 -32.4430368 67.37210264 -42.734375 58.77734375 C-49.86092341 51.4952556 -53.74120599 41.91667619 -54.140625 31.828125 C-53.83958337 21.94392496 -49.68491035 13.70876578 -42.703125 6.765625 C-39.20490888 4.07669768 -35.58452916 1.85648359 -31.703125 -0.234375 C-31.05730469 -0.59660156 -30.41148438 -0.95882812 -29.74609375 -1.33203125 C-20.29652142 -5.75830151 -9.21554871 -3.87162106 0 0 Z " fill="#323848" transform="translate(96.703125,67.234375)"/>
</svg>
